<?xml version="1.0" encoding="UTF-8" standalone="no"?>
<!-- Created with Inkscape (http://www.inkscape.org/) -->
<svg
   xmlns:svg="http://www.w3.org/2000/svg"
   xmlns="http://www.w3.org/2000/svg"
   version="1.0"
   width="485.08008"
   height="516.46436"
   viewBox="0 0 485.08008 516.46436"
   id="svg2"
   xml:space="preserve"><defs
   id="defs10" />
	
		<g
   transform="matrix(0.9323999,0,0,0.952381,17.762052,21.860919)"
   id="Ebene_1">
			<path
   d="M 483.72656,477.0874 C 484.92676,460.88818 482.82715,444.5874 484.32715,428.28857 C 484.52637,424.28857 484.82715,420.18701 484.52637,416.0874 C 483.82715,412.48779 482.42676,408.88818 482.52637,405.18701 C 482.32715,399.18701 482.72656,392.5874 478.92676,387.5874 C 475.72656,382.48779 469.22656,381.78857 464.32715,379.18701 C 459.72656,375.98779 454.02637,373.38818 451.42676,367.98779 C 446.82617,357.5874 441.22656,347.5874 436.12695,337.38818 C 431.92676,326.28857 429.82715,314.0874 431.02637,302.18701 C 432.32617,288.88818 431.22656,275.48779 432.52637,262.18701 C 432.62695,254.48779 433.72656,246.8877 433.82617,239.18799 C 433.92676,234.98779 431.62695,231.28809 429.82715,227.68799 C 425.42676,219.8877 422.82617,211.18799 417.52637,203.8877 C 387.90723,165.15723 356.59863,160.104 319.22656,151.8877 C 313.82715,150.8877 290.22656,146.08789 283.72656,144.98779 C 274.62695,143.98779 265.42676,143.18799 256.32715,141.98779 C 237.92676,140.3877 219.52686,140.18799 201.12646,138.68799 C 184.72656,136.3877 168.02686,135.58789 151.92676,131.28809 C 139.22656,126.28809 127.42676,117.28809 121.62646,104.58789 C 118.92676,99.087891 118.12646,92.987793 116.82666,87.087891 C 115.42676,80.187988 115.12646,73.288086 114.52686,66.288086 C 113.42676,61.387695 111.62646,56.587891 110.52686,51.587891 C 109.32666,48.087891 108.22656,44.288086 105.52686,41.587891 C 103.92676,40.387695 104.72656,38.288086 104.72656,36.587891 C 107.72656,36.487793 110.22656,38.487793 113.02686,39.487793 C 117.12646,39.687988 119.82666,35.687988 120.82666,32.187988 C 121.22656,24.887695 118.32666,17.887695 115.02686,11.58789 C 112.12646,6.0878905 105.82666,3.8876952 100.22656,2.0878905 C 96.82666,1.8876952 93.626465,3.3876952 90.32666,3.6879882 C 86.82666,3.7880859 83.999512,2.4975585 80.226562,1.8876952 C 76.453613,1.2778319 67.821289,0.137207 61.535644,0.0112305 C 55.893555,-0.1020508 47.161133,0.652832 44.426758,1.3876953 C 41.692383,2.1225586 37.226563,6.1879883 33.82666,8.7880859 C 30.526855,11.788086 26.026855,14.288086 25.526855,19.187988 C 25.626465,22.987793 25.226562,27.587891 21.726562,29.788086 C 16.426758,32.687988 10.82666,35.187988 6.2265624,39.187988 C 3.5268554,41.187988 -0.0732423,43.387695 0.1264647,47.187988 C -0.67334,52.788086 2.5268553,57.788086 4.5268553,62.887695 C 6.6264647,66.788086 11.026855,68.487793 14.526855,70.887695 C 21.426758,73.387695 29.026855,72.587891 36.226562,71.487793 C 38.726562,71.887695 41.726562,72.788086 43.026855,75.288086 C 45.626465,79.587891 48.726562,84.087891 48.726562,89.387695 C 48.82666,95.687988 51.426758,101.78809 50.926758,108.18799 C 50.82666,112.68799 49.226562,116.8877 49.126465,121.28809 C 49.426758,124.98779 51.226562,128.3877 51.026855,132.18799 C 51.126465,137.08789 50.126465,142.18799 51.82666,146.98779 C 53.126465,150.58789 53.32666,154.48779 52.626465,158.18799 C 50.926758,165.18799 55.626465,171.3877 57.426758,177.8877 C 59.226562,182.98779 57.026855,188.18799 56.726562,193.28809 C 55.426758,211.18799 54.926758,229.3877 57.626465,247.28809 C 59.526855,256.38818 61.626465,265.48779 64.026855,274.5874 C 65.126465,280.88818 70.226562,285.48779 72.626465,291.38818 C 76.026855,298.88818 78.926758,306.88818 78.82666,315.18701 C 80.026855,334.48779 81.726562,353.78857 83.626465,372.98779 C 85.026855,389.0874 85.626465,405.0874 86.626465,421.18701 C 86.726562,426.78857 87.526855,432.38818 86.626465,437.98779 C 84.926758,447.38818 86.926758,456.98779 84.926758,466.18701 C 83.726562,471.98779 82.926758,477.88818 80.526855,483.38818 C 79.226562,485.5874 78.126465,488.48779 75.32666,489.0874 C 71.82666,490.18701 68.526855,488.28857 65.226562,487.68701 C 58.426758,488.28857 53.426758,496.18701 56.026855,502.48779 C 57.926758,506.28857 61.126465,509.38818 65.226562,510.78857 C 69.226562,511.18701 72.426758,507.0874 76.426758,508.28857 C 78.726562,508.5874 81.126465,509.38818 83.426758,508.5874 C 87.226562,507.48779 89.126465,503.48779 90.126465,499.98779 C 91.926758,496.0874 97.226562,495.88818 99.026855,491.98779 C 100.62646,489.28857 100.92676,486.18701 100.62646,483.18701 C 100.02686,476.18701 101.22656,469.18701 101.92676,462.18701 C 102.32666,458.5874 104.42676,455.38818 106.92676,452.78857 C 108.62646,450.78857 110.52686,447.98779 109.12646,445.38818 C 106.52686,439.68701 108.22656,433.28857 108.02686,427.18701 C 108.92676,412.88818 108.52686,398.5874 109.42676,384.28857 C 109.52686,369.48779 109.82666,354.78857 110.32666,340.0874 C 110.52686,336.0874 112.22656,330.98779 116.62646,330.18701 C 118.22656,343.5874 118.22656,357.0874 119.42676,370.38818 C 119.72656,378.38818 120.62646,386.28857 120.82666,394.18701 C 122.22656,410.78857 121.72656,427.38818 122.92676,443.98779 C 125.22656,460.18701 123.12646,476.68701 119.42676,492.48779 C 116.42676,497.38818 111.12646,500.0874 105.92676,502.18701 C 103.02686,503.48779 99.526855,505.48779 99.32666,509.0874 C 98.726562,512.28857 101.42676,514.98779 104.12646,516.0874 C 109.12646,516.78857 114.22656,516.0874 119.22656,516.28857 C 123.32666,516.18701 127.72656,517.0874 131.72656,515.5874 C 136.12646,512.88818 136.12646,507.18701 138.12646,502.88818 C 140.92676,496.98779 142.82666,490.28857 142.02686,483.68701 C 141.72656,480.78857 140.42676,477.98779 140.42676,475.0874 C 142.22656,469.38818 149.22656,467.68701 151.32666,462.0874 C 152.82666,453.88818 149.22656,445.98779 147.72656,438.0874 C 146.62646,430.5874 144.12646,422.98779 145.32666,415.28857 C 146.72656,391.5874 148.02686,367.88818 149.72656,344.18701 C 150.22656,338.18701 149.12646,331.68701 152.02686,326.0874 C 156.12646,318.68701 152.82666,310.0874 151.62646,302.28857 C 150.92676,300.38818 151.92676,297.5874 154.22656,297.48779 C 158.22656,297.28857 162.12646,298.78857 166.22656,298.38818 C 173.6499,297.54834 183.51269,297.91748 192.22705,295.96533 C 203.64404,293.40674 213.63135,288.31982 219.02686,285.98779 C 227.02686,281.38818 256.72656,261.78857 263.92676,257.0874 C 267.22656,255.68799 270.62695,254.3877 274.02637,253.08789 C 281.32715,250.98779 288.92676,251.08789 296.32715,249.68799 C 300.02637,248.98779 303.92676,248.18799 307.52637,249.58789 C 307.82715,250.28809 308.42676,251.48779 308.72656,252.08789 C 308.12695,254.68799 305.92676,257.0874 306.72656,259.78857 C 307.92676,261.78857 310.22656,262.78857 311.92676,264.38818 C 313.22656,265.98779 313.92676,268.0874 314.52637,270.0874 C 313.82715,281.78857 311.52637,293.48779 313.42676,305.18701 C 313.42676,312.98779 316.72656,320.18701 320.72656,326.68701 C 326.92676,335.38818 333.82715,343.68701 339.72656,352.5874 C 346.12695,361.5874 351.42676,371.48779 359.52637,379.0874 C 369.02637,387.48779 372.72656,400.18701 376.12695,411.98779 C 377.52637,415.68701 376.92676,419.78857 376.32715,423.5874 C 375.42676,428.28857 375.72656,433.0874 374.62695,437.68701 C 373.72656,440.18701 372.12695,442.38818 371.02637,444.88818 C 369.82617,448.98779 369.42676,453.38818 368.52637,457.5874 C 367.32715,461.0874 364.02637,463.78857 360.32715,464.38818 C 356.92676,464.18701 353.12695,462.78857 349.92676,464.88818 C 346.92676,467.5874 344.12695,470.78857 343.92676,474.98779 C 344.52637,476.68701 345.42676,478.38818 347.02637,479.38818 C 351.82715,483.68701 358.62695,480.5874 364.32715,481.88818 C 367.92676,482.88818 370.72656,480.18701 372.72656,477.68701 C 375.52637,474.38818 379.12695,471.98779 382.22656,469.0874 C 384.22656,465.48779 384.42676,461.28857 385.32715,457.28857 C 386.22656,452.18701 389.32617,447.88818 390.82617,442.98779 C 392.32617,437.78857 394.02637,432.68701 394.92676,427.28857 C 395.82715,423.0874 396.22656,409.96436 396.22656,409.96436 C 396.22656,409.96436 401.72656,417.5874 404.12695,419.38818 C 407.23633,422.09229 410.3916,425.48193 414.21094,427.33252 C 421.05566,430.64893 428.32422,429.89307 434.12695,428.0874 C 440.82617,426.18701 453.00195,414.7583 453.00195,414.7583 C 453.00195,414.7583 456.62695,419.78857 457.92676,422.68701 C 461.92676,429.18701 462.02637,436.88818 463.42676,444.18701 C 464.22656,449.88818 465.82715,455.48779 465.62695,461.18701 C 465.42676,466.5874 465.22656,471.98779 465.02637,477.28857 C 464.72656,479.98779 464.32715,483.18701 461.82715,484.78857 C 457.52637,487.38818 451.92676,488.48779 448.92676,492.98779 C 446.92676,495.68701 447.92676,499.28857 449.32715,501.98779 C 452.12695,506.18701 457.62695,506.68701 462.22656,506.28857 C 465.82715,505.98779 468.62695,503.48779 472.12695,502.98779 C 473.92676,502.98779 475.62695,503.38818 477.42676,503.68701 C 477.92676,503.28857 478.92676,502.5874 479.32715,502.28857 C 480.92676,498.5874 482.12695,494.78857 484.12695,491.28857 C 486.52637,486.68701 483.62695,481.88818 483.72656,477.0874 z M 381.32715,358.48779 C 379.72656,353.98779 377.22656,349.68701 376.32715,344.98779 C 375.52637,341.0874 374.02637,336.88818 375.92676,333.18701 C 376.62695,333.5874 377.92676,334.28857 378.52637,334.68701 C 382.12695,341.98779 385.02637,350.68701 381.32715,358.48779 z M 444.73633,401.57861 C 444.73633,401.57861 442.95312,403.87256 442.2793,404.70557 C 437.06543,410.20947 427.45996,420.44189 417.92676,413.48779 C 389.71777,399.12256 398.04004,355.53174 398.04687,355.55908 C 398.04687,355.55908 405.22656,360.88818 407.42676,363.98779 C 413.42676,370.5874 420.32715,376.38818 426.62695,382.78857 C 431.62695,387.48779 436.02637,392.78857 441.42676,397.0874 C 442.63379,397.99268 444.73633,401.57861 444.73633,401.57861 z "
   id="path7" />
		</g>
	</svg>